<svg xmlns="http://www.w3.org/2000/svg" xmlns:xlink="http://www.w3.org/1999/xlink" id="Capa_1" x="0" y="0" version="1.1" viewBox="0 0 290 32" xml:space="preserve" style="enable-background:new 0 0 290 32"><style type="text/css">.st0{fill:#fff}.st1{fill:#37b34a}</style><g><g><path d="M80,30.8h-8.6L67.3,24h-3v6.8h-7.9V1.2h11.2c7.9,0,12.4,5,12.4,11.6c0,4.3-1.9,7.6-5.3,9.6L80,30.8z M67.2,17.7c3.6,0,4.9-2,4.9-4.9c0-2.9-1.3-4.9-4.9-4.9h-2.9v9.8H67.2z" class="st0"/></g><g><g><path d="M218.8,30.8h-8.6l-4.1-6.8h-3v6.8h-7.9V1.2h11.2c7.9,0,12.4,5,12.4,11.6c0,4.3-1.9,7.6-5.3,9.6L218.8,30.8z M206,17.7c3.6,0,4.9-2,4.9-4.9c0-2.9-1.3-4.9-4.9-4.9h-2.9v9.8H206z" class="st1"/></g></g><path d="M12.9,31.2c-0.1,0.3-0.4,0.3-0.5,0L0,1.3h8.3l5.5,13.9l6.3-14.4c0.1-0.2,0.3-0.2,0.3,0l6.6,14.4l5.3-13.9h7.9 L28.1,31.2c-0.1,0.3-0.3,0.3-0.5,0l-7.4-15.8L12.9,31.2z" class="st0"/><path d="M43.2,1.2h7.9v29.5h-7.9V1.2z" class="st0"/><path d="M83.7,1.2h20.7v6.6H91.6v6.9h10.7V21H91.6v3.1h13.4v6.6H83.7V1.2z" class="st0"/><path d="M247.9,0.8c0.1-0.3,0.4-0.3,0.5,0l12.4,29.9h-8.3L247,16.9l-6.3,14.4c-0.1,0.2-0.3,0.2-0.3,0l-6.6-14.4 l-5.3,13.9h-7.9l12.2-29.9c0.1-0.3,0.3-0.3,0.5,0l7.4,15.8L247.9,0.8z" class="st1"/><path d="M155.6,1.2h7.6v29.5h-7.6v-9.4h-9.9v9.4h-7.6V1.2h7.6v13.5h9.9V1.2z" class="st1"/><path d="M173.2,31.1h-7.4l13.8-30c0.1-0.3,0.4-0.3,0.5,0l13.8,30h-7.9l-1.1-2.5c0,0-10.7,0-10.7,0L173.2,31.1z M179.6,15.9l-2.8,6.9h5.8L179.6,15.9z" class="st1"/><path d="M269.3,31.1h-7.4l13.8-30c0.1-0.3,0.4-0.3,0.5,0l13.8,30h-7.9l-1.1-2.5c0,0-10.7,0-10.7,0L269.3,31.1z M275.6,15.9l-2.8,6.9h5.8L275.6,15.9z" class="st1"/><path d="M119.5,30.9h-7.7V1h10.9c7.7,0,12.1,5.1,12.1,11.7c0,6.1-3.5,11.7-10.1,11.7c-0.6,0-1.3,0-2,0h-3.2V30.9z M122.3,17.5c3.4,0,4.7-2,4.7-4.9s-1.3-4.9-4.7-4.9h-2.8v9.8H122.3z" class="st0"/><g><g><path d="M124.9,17.2l0,7.3h-5.2l0,6.6h-7.8v-6.7h-5.3v-7.2h5.3v-5.9h7.6v5.9" class="st1"/></g></g></g></svg>